<?xml version="1.0" encoding="utf-8"?>
<!-- Generator: Adobe Illustrator 25.4.1, SVG Export Plug-In . SVG Version: 6.00 Build 0)  -->
<svg version="1.1" id="Layer_1" xmlns="http://www.w3.org/2000/svg" xmlns:xlink="http://www.w3.org/1999/xlink" x="0px" y="0px"
	 viewBox="0 0 24 24" style="enable-background:new 0 0 24 24;" xml:space="preserve">
<style type="text/css">
	.st0{fill:#FFFFFF;}
</style>
<path class="st0" d="M19.5,2H9C7.6,2,6.4,2.6,5.5,3.7L1,9.2c-1.3,1.6-1.3,4,0,5.7l4.5,5.5C6.4,21.4,7.6,22,9,22h10.5
	c2.5,0,4.5-2,4.5-4.5v-11C24,4,22,2,19.5,2L19.5,2z M23,17.5c0,1.9-1.6,3.5-3.5,3.5H9c-1.1,0-2-0.5-2.7-1.3l-4.5-5.5
	c-1-1.3-1-3.1,0-4.4l4.5-5.5C7,3.5,7.9,3,9,3h10.5C21.4,3,23,4.6,23,6.5V17.5L23,17.5z M17.9,8.9L14.7,12l3.1,3.1
	c0.2,0.2,0.2,0.5,0,0.7C17.8,16,17.6,16,17.5,16s-0.3,0-0.4-0.1L14,12.7l-3.1,3.1C10.8,16,10.6,16,10.5,16s-0.3,0-0.4-0.1
	c-0.2-0.2-0.2-0.5,0-0.7l3.1-3.1l-3.1-3.1c-0.2-0.2-0.2-0.5,0-0.7s0.5-0.2,0.7,0l3.1,3.1l3.1-3.1c0.2-0.2,0.5-0.2,0.7,0
	C18,8.3,18,8.7,17.9,8.9L17.9,8.9z"/>
</svg>
