<?xml version="1.0" encoding="UTF-8"?>
<svg xmlns="http://www.w3.org/2000/svg" id="Layer_1" data-name="Layer 1" viewBox="0 0 24 24">
  <path d="m19.5,2h-10.5c-1.357,0-2.629.604-3.487,1.656L1.026,9.156c-1.345,1.648-1.345,4.041,0,5.688l4.486,5.5c.858,1.052,2.13,1.656,3.487,1.656h10.5c2.481,0,4.5-2.019,4.5-4.5V6.5c0-2.481-2.019-4.5-4.5-4.5Zm3.5,15.5c0,1.93-1.57,3.5-3.5,3.5h-10.5c-1.056,0-2.045-.469-2.712-1.288L1.802,14.212c-1.047-1.282-1.047-3.143,0-4.425l4.486-5.5c.667-.818,1.656-1.288,2.712-1.288h10.5c1.93,0,3.5,1.57,3.5,3.5v11Zm-5.146-8.646l-3.146,3.146,3.146,3.146c.195.195.195.512,0,.707-.098.098-.226.146-.354.146s-.256-.049-.354-.146l-3.146-3.146-3.146,3.146c-.098.098-.226.146-.354.146s-.256-.049-.354-.146c-.195-.195-.195-.512,0-.707l3.146-3.146-3.146-3.146c-.195-.195-.195-.512,0-.707s.512-.195.707,0l3.146,3.146,3.146-3.146c.195-.195.512-.195.707,0s.195.512,0,.707Z"/>
</svg>
