<?xml version="1.0" encoding="utf-8"?>
<!-- Generator: Adobe Illustrator 25.4.1, SVG Export Plug-In . SVG Version: 6.00 Build 0)  -->
<svg version="1.1" id="Layer_1" xmlns="http://www.w3.org/2000/svg" xmlns:xlink="http://www.w3.org/1999/xlink" x="0px" y="0px"
	 viewBox="0 0 512 512" style="enable-background:new 0 0 512 512;" xml:space="preserve">
<style type="text/css">
	.st0{fill:#FFFFFF;}
</style>
<path class="st0" d="M495.9,217L448,169.2v-51.8c0-29.4-23.9-53.3-53.3-53.3h-51.8L295,16.1c-21.5-21.5-56.4-21.5-78,0L169.2,64
	h-51.8C87.9,64,64,87.9,64,117.3v51.8L16.1,217C5.7,227.4,0,241.3,0,256c0,14.7,5.7,28.6,16.1,39L64,342.8v51.8
	c0,29.4,23.9,53.3,53.3,53.3h51.8l47.9,47.9c10.8,10.8,24.9,16.1,39,16.1c14.1,0,28.2-5.4,39-16.1l47.9-47.9h51.8
	c29.4,0,53.3-23.9,53.3-53.3v-51.8l47.9-47.9c10.4-10.4,16.1-24.3,16.1-39C512,241.3,506.3,227.4,495.9,217z M480.8,279.9l-51,51
	c-2,2-3.1,4.7-3.1,7.6v56.3c0,17.6-14.4,32-32,32h-56.3c-2.8,0-5.5,1.1-7.6,3.1l-51,51c-13.2,13.2-34.6,13.2-47.8,0l-51-51
	c-2-2-4.7-3.1-7.6-3.1h-56.3c-17.6,0-32-14.4-32-32v-56.3c0-2.8-1.1-5.5-3.1-7.6l-51-51c-6.4-6.4-9.9-14.9-9.9-23.9
	s3.5-17.5,9.9-23.9l51-51c2-2,3.1-4.7,3.1-7.6v-56.3c0-17.6,14.4-32,32-32h56.3c2.8,0,5.5-1.1,7.6-3.1l51-51
	c13.2-13.2,34.6-13.2,47.8,0l51,51c2,2,4.7,3.1,7.6,3.1h56.3c17.6,0,32,14.4,32,32v56.3c0,2.8,1.1,5.5,3.1,7.6l51,51
	c6.4,6.4,9.9,14.9,9.9,23.9S487.1,273.5,480.8,279.9z M319,180.5c4.8,27.2-8.1,54.3-32.1,67.6c-12.7,7-20.2,17.9-20.2,29.2V288
	c0,5.9-4.8,10.7-10.7,10.7s-10.7-4.8-10.7-10.7v-10.7c0-19.2,11.7-37.2,31.2-47.9c16.3-9,24.7-26.7,21.4-45.2
	c-3-17.1-17-31.2-34.1-34.2c-12.9-2.2-25.4,1-35.3,9.3c-9.7,8.1-15.2,20-15.2,32.7c0,5.9-4.8,10.7-10.7,10.7S192,197.9,192,192
	c0-19,8.3-36.8,22.8-49c14.5-12.2,33.7-17.3,52.7-14C293.3,133.5,314.5,154.7,319,180.5L319,180.5z M277.3,362.7
	c0,11.8-9.6,21.3-21.3,21.3c-11.8,0-21.3-9.6-21.3-21.3s9.6-21.3,21.3-21.3C267.8,341.3,277.3,350.9,277.3,362.7z"/>
</svg>
