<?xml version="1.0" encoding="utf-8"?>
<!-- Generator: Adobe Illustrator 25.4.1, SVG Export Plug-In . SVG Version: 6.00 Build 0)  -->
<svg version="1.1" id="Layer_1" xmlns="http://www.w3.org/2000/svg" xmlns:xlink="http://www.w3.org/1999/xlink" x="0px" y="0px"
	 viewBox="0 0 512 512" style="enable-background:new 0 0 512 512;" xml:space="preserve">
<style type="text/css">
	.st0{fill:#0A2034;}
</style>
<path class="st0" d="M345.9,465.2c-112,58.6-250.2,15.2-308.8-96.8c-3.3-6.4-6.4-12.9-9.1-19.6C-9.3,253.5,20.8,145,102,82.6
	c25.7-19.2,55-33.2,86.1-41.3c16.8-4.1,34.5,1.4,46.1,14.2c11.6,12.6,15.4,30.6,9.8,46.8c-39.3,110.3,24.8,215.3,141.6,234.2l0,0
	c25.8,4.6,42.9,29.3,38.3,55.1c-1.6,8.8-5.6,16.9-11.6,23.5C393,435.3,370.6,452.1,345.9,465.2z"/>
<path class="st0" d="M437.3,256c-9.8,0-18.3-6.7-20.7-16.1l-7.6-30.5l-30.5-8.2c-11.4-3.1-18.1-14.8-15.1-26.1
	c2-7.6,8.1-13.5,15.8-15.2l29.9-6.9l7.5-30c2.9-11.4,14.5-18.4,25.9-15.5c7.6,1.9,13.6,7.9,15.5,15.5l7.6,30.3l30.3,7.6
	c11.4,2.9,18.4,14.5,15.5,25.9c-1.9,7.6-7.9,13.6-15.5,15.5l-30.3,7.6l-7.6,30.3C455.6,249.3,447.1,256,437.3,256z"/>
<circle class="st0" cx="458.6" cy="312.3" r="21.3"/>
<path class="st0" d="M341.3,206.7c-11.8,0-21.3,9.6-21.3,21.3s9.6,21.3,21.3,21.3c11.8,0,21.3-9.6,21.3-21.4
	C362.6,216.2,353.1,206.7,341.3,206.7L341.3,206.7z"/>
</svg>
