<?xml version="1.0" encoding="utf-8"?>
<!-- Generator: Adobe Illustrator 25.4.1, SVG Export Plug-In . SVG Version: 6.00 Build 0)  -->
<svg version="1.1" id="Layer_1" xmlns="http://www.w3.org/2000/svg" xmlns:xlink="http://www.w3.org/1999/xlink" x="0px" y="0px"
	 viewBox="0 0 24 24" style="enable-background:new 0 0 24 24;" xml:space="preserve">
<style type="text/css">
	.st0{fill:#FFFFFF;}
</style>
<path d="M8.9,2.9c0,0.2-0.1,0.3-0.3,0.3H7.3c-1.2,0-2.2,1-2.2,2.2v1.3C5.1,6.9,5,7,4.8,7C4.6,7,4.5,6.9,4.5,6.7V5.5
	c0-1.6,1.3-2.8,2.8-2.8h1.3C8.8,2.6,8.9,2.8,8.9,2.9z M4.8,12.1c0.2,0,0.3-0.1,0.3-0.3V8.6c0-0.2-0.1-0.3-0.3-0.3
	c-0.2,0-0.3,0.1-0.3,0.3v3.2C4.5,12,4.6,12.1,4.8,12.1z M8.6,17.2H7.3c-1.2,0-2.2-1-2.2-2.2v-1.3c0-0.2-0.1-0.3-0.3-0.3
	c-0.2,0-0.3,0.1-0.3,0.3v1.3c0,1.6,1.3,2.8,2.8,2.8h1.3c0.2,0,0.3-0.1,0.3-0.3S8.8,17.2,8.6,17.2z M19.4,13.4
	c-0.2,0-0.3,0.1-0.3,0.3v1.3c0,1.2-1,2.2-2.2,2.2h-1.3c-0.2,0-0.3,0.1-0.3,0.3s0.1,0.3,0.3,0.3h1.3c1.6,0,2.8-1.3,2.8-2.8v-1.3
	C19.7,13.5,19.5,13.4,19.4,13.4z M19.4,8.3c-0.2,0-0.3,0.1-0.3,0.3v3.2c0,0.2,0.1,0.3,0.3,0.3c0.2,0,0.3-0.1,0.3-0.3V8.6
	C19.7,8.4,19.5,8.3,19.4,8.3z M16.8,2.6h-1.3c-0.2,0-0.3,0.1-0.3,0.3c0,0.2,0.1,0.3,0.3,0.3h1.3c1.2,0,2.2,1,2.2,2.2v1.3
	C19,6.9,19.2,7,19.4,7c0.2,0,0.3-0.1,0.3-0.3V5.5C19.7,3.9,18.4,2.6,16.8,2.6z M13.7,2.6h-3.2c-0.2,0-0.3,0.1-0.3,0.3
	c0,0.2,0.1,0.3,0.3,0.3h3.2c0.2,0,0.3-0.1,0.3-0.3C14,2.8,13.8,2.6,13.7,2.6z M13.7,17.2h-3.2c-0.2,0-0.3,0.1-0.3,0.3
	s0.1,0.3,0.3,0.3h3.2c0.2,0,0.3-0.1,0.3-0.3S13.8,17.2,13.7,17.2z"/>
<path class="st0" d="M21.3,14.9L15.6,10c-0.4-0.3-0.9-0.4-1.4-0.2c-0.5,0.2-0.7,0.7-0.7,1.2v7.5c0,0.5,0.3,1,0.8,1.2
	c0.5,0.2,1.1,0.1,1.4-0.3l0.9-1l1.7,3.4c0.2,0.5,0.7,0.7,1.2,0.7c0.2,0,0.4,0,0.6-0.1c0.3-0.2,0.6-0.4,0.7-0.8
	c0.1-0.3,0.1-0.7-0.1-1l-1.7-3.4h1.4c0.5,0,1-0.4,1.2-0.9C21.9,15.8,21.7,15.2,21.3,14.9L21.3,14.9z M21.2,16.1
	c-0.1,0.2-0.3,0.5-0.7,0.5h-1.9c-0.1,0-0.2,0-0.2,0.1c0,0.1-0.1,0.2,0,0.3l1.9,3.8c0.1,0.2,0.1,0.4,0,0.6s-0.2,0.4-0.4,0.5
	c-0.4,0.2-0.9,0-1.1-0.4L17,17.8c0-0.1-0.1-0.1-0.2-0.1c0,0-0.1,0-0.2,0.1l-1.2,1.3c-0.3,0.3-0.6,0.3-0.8,0.2
	c-0.2-0.1-0.5-0.3-0.5-0.7V11c0-0.3,0.2-0.6,0.4-0.7c0.3-0.1,0.6-0.1,0.8,0.1l5.7,4.9c0,0,0,0,0,0C21.3,15.5,21.3,15.9,21.2,16.1
	L21.2,16.1z"/>
</svg>
