<?xml version="1.0" encoding="utf-8"?>
<!-- Generator: Adobe Illustrator 25.4.1, SVG Export Plug-In . SVG Version: 6.00 Build 0)  -->
<svg version="1.1" id="Layer_1" xmlns="http://www.w3.org/2000/svg" xmlns:xlink="http://www.w3.org/1999/xlink" x="0px" y="0px"
	 viewBox="0 0 256 256" style="enable-background:new 0 0 256 256;" xml:space="preserve">
<style type="text/css">
	.st0{fill:none;}
	.st1{fill:url(#SVGID_1_);}
</style>
<g>
	<path class="st0" d="M202.6,256H53.4C23.9,256,0,232.1,0,202.6V53.4C0,23.9,23.9,0,53.4,0h149.2C232.1,0,256,23.9,256,53.4v149.2
		C256,232.1,232.1,256,202.6,256z"/>
</g>
<radialGradient id="SVGID_1_" cx="128" cy="713.8898" r="77.7838" gradientTransform="matrix(1 0 0 1 0 -585.8898)" gradientUnits="userSpaceOnUse">
	<stop  offset="0" style="stop-color:#007AEE"/>
	<stop  offset="1" style="stop-color:#009EFF"/>
</radialGradient>
<path class="st1" d="M169.1,202.7H86.8c-21.8,0-39.5-17.7-39.5-39.5V92.8c0-21.8,17.7-39.5,39.5-39.5h82.5
	c21.8,0,39.5,17.7,39.5,39.5v70.4C208.8,185,191.1,202.7,169.1,202.7z"/>
<g>
	<path d="M90.7,147.9c0.2,0.1,0.6,0.3,1,0.4l2,0.4c0.3,0.1,0.5,0.2,0.5,0.4c0,0.1,0,0.2-0.1,0.2c-0.1,0.1-0.2,0.1-0.3,0.1H75.6
		c-0.1,0-0.2,0-0.3-0.1c-0.1-0.1-0.1-0.1-0.1-0.2c0-0.2,0.2-0.3,0.5-0.4l2-0.4c0.4-0.1,0.8-0.2,1-0.4c0.2-0.1,0.3-0.3,0.3-0.6v-38.7
		c0-0.2-0.1-0.4-0.3-0.6c-0.2-0.2-0.5-0.3-1-0.3l-2-0.4c-0.3,0-0.5-0.1-0.5-0.3c0-0.1,0-0.2,0.1-0.2c0.1-0.1,0.2-0.1,0.3-0.1h18.2
		c0.1,0,0.2,0,0.3,0.1c0.1,0.1,0.1,0.1,0.1,0.2c0,0.2-0.2,0.3-0.5,0.3l-2,0.4c-0.9,0.1-1.3,0.4-1.3,0.9v38.7
		C90.3,147.5,90.5,147.7,90.7,147.9z"/>
	<path d="M132.7,143c-1.5,2.2-3.5,4-6.1,5.2c-2.5,1.3-5.3,1.9-8.4,1.9c-4.2,0-7.8-0.9-10.8-2.8c-3.1-1.8-5.4-4.4-7-7.6
		s-2.4-7-2.4-11.2c0-4.4,0.9-8.3,2.6-11.8c1.8-3.4,4.2-6.1,7.4-8.1c3.2-1.9,6.8-2.9,10.9-2.9c0.9,0,1.7,0,2.5,0.1
		c0.8,0.1,1.5,0.2,2.1,0.4c1,0.3,2.2,0.8,3.5,1.4c0.5,0.3,0.8,0.4,1,0.4c0.3,0,0.7-0.2,1.3-0.6l0.9-0.6c0.4-0.3,0.7-0.5,1.1-0.8
		c0.4-0.2,0.6-0.4,0.7-0.4c0.1,0,0.2,0,0.3,0.1c0.1,0.1,0.1,0.3,0.2,0.5l2.8,12.7c0,0.2,0,0.3,0,0.5s-0.1,0.2-0.3,0.3
		c-0.1,0-0.3,0-0.4-0.1c-0.1-0.1-0.2-0.2-0.4-0.5c-1.4-3.7-3.2-6.7-5.3-8.9c-2.1-2.2-4.6-3.3-7.5-3.3c-2.1,0-4,0.7-5.7,2.1
		s-3.1,3.4-4,6.1c-1,2.7-1.5,5.9-1.5,9.7c0,4.6,0.6,8.4,1.7,11.4c1.1,3.1,2.7,5.4,4.7,6.9s4.3,2.3,7,2.3c2,0,3.8-0.4,5.3-1.3
		c1.5-0.8,2.7-2,3.7-3.5c1-1.5,1.6-3.2,2-5.2c0-0.1,0.1-0.2,0.1-0.3c0.1-0.1,0.1-0.1,0.2-0.1c0.1,0,0.2,0.1,0.2,0.2
		c0,0,0.1,0.1,0.1,0.1c0,0.1,0,0.1,0,0.2C135.1,138.4,134.2,140.8,132.7,143z"/>
	<path d="M170.6,108.7c3.3,1.8,5.8,4.4,7.5,7.6c1.8,3.3,2.7,7,2.7,11.3c0,4.4-0.9,8.2-2.6,11.6c-1.7,3.4-4.2,6-7.3,7.8
		c-3.1,1.9-6.8,2.8-10.9,2.8c-4.3,0-8.1-0.9-11.4-2.7c-3.3-1.8-5.8-4.4-7.6-7.7c-1.8-3.3-2.6-7.2-2.6-11.7c0-4.2,0.9-7.9,2.6-11.2
		c1.7-3.3,4.2-5.9,7.3-7.7c3.2-1.9,6.8-2.8,10.8-2.8C163.6,106,167.4,106.9,170.6,108.7z M167.5,122.4c-1.2-4.6-2.8-8.3-4.7-11.2
		c-1.9-2.9-4-4.3-6-4.3c-1.4,0-2.6,0.5-3.6,1.4c-1,0.9-1.8,2.3-2.3,4c-0.5,1.8-0.8,4-0.8,6.5c0,4.9,0.6,9.7,1.8,14.3
		c1.2,4.6,2.8,8.4,4.7,11.3c1.9,2.9,3.9,4.3,6,4.3c1.5,0,2.7-0.4,3.7-1.3s1.7-2.2,2.3-4c0.5-1.8,0.8-4.2,0.8-7
		C169.3,131.7,168.7,127,167.5,122.4z"/>
</g>
</svg>
